<svg viewBox="0 0 256 256" xmlns="http://www.w3.org/2000/svg">
  <!-- Dark background -->
  <rect width="256" height="256" fill="#0D0D0D"/>
  
  <!-- Geometric signal/waves pattern with orange accent -->
  <!-- Represents "SIGNAL" branding -->
  
  <!-- Left wave -->
  <path d="M 50 80 Q 70 60, 90 80 Q 110 100, 130 80" 
        stroke="#D97706" stroke-width="6" fill="none" stroke-linecap="round"/>
  
  <!-- Center wave (strongest) -->
  <path d="M 40 128 Q 70 100, 100 128 Q 130 156, 160 128" 
        stroke="#D97706" stroke-width="8" fill="none" stroke-linecap="round"/>
  
  <!-- Right wave -->
  <path d="M 50 176 Q 70 156, 90 176 Q 110 196, 130 176" 
        stroke="#D97706" stroke-width="6" fill="none" stroke-linecap="round"/>
  
  <!-- Corner accent marks (technical aesthetic) -->
  <rect x="20" y="20" width="20" height="3" fill="#D97706" opacity="0.6"/>
  <rect x="20" y="20" width="3" height="20" fill="#D97706" opacity="0.6"/>
  
  <rect x="216" y="20" width="20" height="3" fill="#D97706" opacity="0.6"/>
  <rect x="233" y="20" width="3" height="20" fill="#D97706" opacity="0.6"/>
  
  <rect x="20" y="233" width="20" height="3" fill="#D97706" opacity="0.6"/>
  <rect x="20" y="216" width="3" height="20" fill="#D97706" opacity="0.6"/>
  
  <rect x="216" y="233" width="20" height="3" fill="#D97706" opacity="0.6"/>
  <rect x="233" y="216" width="3" height="20" fill="#D97706" opacity="0.6"/>
</svg>